<svg height="512pt" viewBox="0 0 512 512" width="512pt" xmlns="http://www.w3.org/2000/svg"><path d="m301 407v-1.863281c-22.394531 12.640625-38.320312 16.988281-45 19.925781-7.996094-3.519531-22.734375-7.109375-45-19.777344v1.714844c0 24.851562 20.148438 45 45 45s45-20.148438 45-45zm0 0"/><path d="m91 393.515625c-50.75 7.355469-91 50.730469-91 103.484375v15h91zm0 0"/><path d="m391 392h-60v15c0 41.351562-33.648438 75-75 75s-75-33.648438-75-75v-15h-60v120h270zm0 0"/><path d="m421 393.515625v118.484375h91v-15c0-52.753906-40.25-96.128906-91-103.484375zm0 0"/><path d="m421 122h-31.515625c-7.574219-67.316406-64.175781-122-133.484375-122s-125.910156 54.683594-133.484375 122h-31.515625v60h330zm0 0"/><path d="m124.578125 242h11.421875c19.53125 0 36.023438-12.578125 42.238281-30h-56.828125c.457032 10.515625 1.496094 20.539062 3.167969 30zm0 0"/><path d="m302.519531 212h-93.039062c-6.96875 34.191406-37.265625 60-73.480469 60h-3.851562c31.765624 91.261719 121.382812 119.007812 123.851562 121.023438 2.464844-1.9375 91.757812-30.644532 123.6875-121.023438h-3.6875c-36.214844 0-66.511719-25.808594-73.480469-60zm0 0"/><path d="m387.359375 242c1.699219-9.464844 2.757813-19.488281 3.222656-30h-56.820312c6.214843 17.421875 22.707031 30 42.238281 30zm0 0"/><path d="m421 272h-10.226562c-10.28125 34.03125-28.226563 64.480469-53.425782 90h63.652344zm0 0"/><path d="m91 272v90h63.464844c-25.234375-25.519531-43.113282-55.949219-53.332032-90zm0 0"/></svg>