<?xml version="1.0" encoding="UTF-8"?>
<svg width="50px" height="50px" viewBox="0 0 50 50" version="1.1" xmlns="http://www.w3.org/2000/svg" xmlns:xlink="http://www.w3.org/1999/xlink">
    <!-- Generator: Sketch 50.2 (55047) - http://www.bohemiancoding.com/sketch -->
    <title>Mobile</title>
    <desc>Created with Sketch.</desc>
    <defs></defs>
    <g id="Mobile" stroke="none" stroke-width="1" fill="none" fill-rule="evenodd">
        <g id="portfolio-menu-item-active-copy-8" transform="translate(-3.000000, -2.000000)" fill="#666666" fill-rule="nonzero">
            <g id="ico_actores" transform="translate(11.500000, 11.000000)">
                <path d="M13.1345455,32 C12.4990139,32.0009475 11.8676206,31.8977626 11.2654545,31.6945455 C8.71965565,30.8827942 6.54946233,29.1848308 5.14909091,26.9090909 C1.94909091,21.5636364 0.727272727,13.6509091 0.727272727,13.5709091 C0.706966805,13.4351019 0.782032391,13.3029865 0.909090909,13.2509091 C4.5127341,11.7763964 8.23523489,10.610986 12.0363636,9.76727273 C12.8902449,6.70409807 14.0373664,3.73035015 15.4618182,0.887272727 C15.5225745,0.762648728 15.6612124,0.696343657 15.7963636,0.727272727 C21.277184,2.06919623 26.5707809,4.084525 31.5563636,6.72727273 C31.6813714,6.7910713 31.7449684,6.93340744 31.7090909,7.06909091 C31.7090909,7.14909091 29.7163636,14.9018182 26.0072727,19.8763636 C24.6007962,21.7649706 22.6209752,23.1477837 20.3636364,23.8181818 C20.0883772,26.1070471 19.1188565,28.2567434 17.5854545,29.9781818 C16.4640938,31.2641809 14.8407813,32.0015679 13.1345455,32 Z M17.8909091,21.1927273 L17.6436364,20.9236364 C17.5261812,20.8885772 17.3992363,20.9289688 17.3236364,21.0254545 C16.681862,21.8051589 15.9268007,22.4842238 15.0836364,23.04 C14.3094452,23.5237149 13.4758381,23.9050718 12.6036364,24.1745455 C11.7153476,24.385318 10.8035849,24.4806498 9.89090909,24.4581818 C8.8844763,24.4050269 7.89166391,24.2015617 6.94545455,23.8545455 C6.83177342,23.8093591 6.70202578,23.8381919 6.61818182,23.9272727 C6.53534802,24.0183406 6.51527746,24.1502329 6.56727273,24.2618182 C7.23729753,25.4294388 8.25397173,26.3596957 9.47636364,26.9236364 C11.6436364,28.0218182 14.8290909,27.2945455 16.0872727,25.84 C16.3237955,25.5616806 16.5378038,25.2649872 16.7272727,24.9527273 C17.4761441,23.8409414 17.8808716,22.5331657 17.8909091,21.1927273 Z M5.83466235,16.9255892 C5.25601268,17.574726 5.11809286,18.5055005 5.48363636,19.2872727 C5.62958,19.8324051 5.98511416,20.2977366 6.47272727,20.5818182 C6.5187546,20.6099049 6.57153647,20.6249854 6.62545455,20.6254545 C6.68823327,20.6244606 6.74918063,20.6041448 6.8,20.5672727 L9.52,18.5745455 C9.61611074,18.5049509 9.66180913,18.3849926 9.63636364,18.2690909 L9.63636364,18.1818182 C9.55840824,17.3157137 8.9735765,16.5786012 8.14788188,16.3057598 C7.32218726,16.0329184 6.41331202,16.2764524 5.83466235,16.9255892 Z M14.2618182,14.7636364 L13.7672727,14.8654545 C12.6313807,15.19069 11.9607782,16.3610204 12.2545455,17.5054545 L12.2545455,17.5854545 C12.291498,17.6978094 12.3913649,17.777703 12.5090909,17.7890909 L15.8763636,18.1163636 C15.9845215,18.1154004 16.084105,18.05731 16.1381818,17.9636364 C16.4909074,17.2956854 16.4730481,16.4928098 16.0909701,15.8412039 C15.7088921,15.189598 15.0169589,14.7819748 14.2618182,14.7636364 Z M20.1963636,19.1054545 C20.3670379,20.309957 20.4496812,21.5252988 20.4436364,22.7418182 C20.4436364,22.88 20.4436364,23.0254545 20.4436364,23.1781818 C22.478179,22.5263848 24.258129,21.2549919 25.5345455,19.5418182 C28.8145455,15.1345455 30.72,8.48 31.0690909,7.17818182 C26.2601824,4.64319473 21.1643266,2.69470746 15.8909091,1.37454545 C14.5845682,4.02283283 13.518476,6.78298941 12.7054545,9.62181818 C13.7309091,9.40363636 14.7709091,9.20727273 15.8036364,9.04 C15.8070612,8.79138546 15.8538225,8.54527336 15.9418182,8.31272727 L15.9781818,8.21818182 C16.0239769,8.11719754 16.1220251,8.04996451 16.2327273,8.04363636 L19.5054545,7.85454545 C19.6176303,7.84705358 19.7244842,7.90329246 19.7818182,8 C20.1226018,8.56397197 20.1843168,9.25356945 19.9490909,9.86909091 C19.6726755,10.5815319 19.0436661,11.09743 18.2909091,11.2290909 C18.64,12.2763636 19.0181818,13.6363636 19.4181818,15.1636364 C20.2032066,15.5234738 20.8638119,16.1081476 21.3163636,16.8436364 C21.502382,17.082806 21.6701289,17.3356418 21.8181818,17.6 C22.3491431,18.5912119 22.5767746,19.716723 22.4727273,20.8363636 C22.4517094,20.9577556 22.3582007,21.0537233 22.2373951,21.0778845 C22.1165894,21.1020456 21.9933631,21.0494249 21.9272727,20.9454545 C21.4621122,20.2518149 20.8958519,19.6316251 20.2472727,19.1054545 L20.1963636,19.1054545 Z M20.0727273,18.2836364 C20.2472727,18.4 20.4218182,18.5236364 20.5818182,18.6472727 C21.0372132,19.01101 21.4517642,19.4231224 21.8181818,19.8763636 C21.7371801,19.1731361 21.535432,18.4891608 21.2218182,17.8545455 C21.1023945,17.6018995 20.9638079,17.3587651 20.8072727,17.1272727 C20.5030177,16.6414283 20.1049569,16.2211156 19.6363636,15.8909091 C19.8181818,16.7054545 19.9781818,17.5054545 20.1018182,18.2690909 L20.0727273,18.2836364 Z M17.3381818,8.82909091 C17.4238406,8.85658783 17.4930219,8.92044749 17.5272727,9.00363636 C17.5272727,9.00363636 17.7745455,9.61454545 18.1090909,10.5963636 C18.689123,10.5326855 19.18544,10.1513347 19.3963636,9.60727273 C19.5436046,9.22321666 19.5305037,8.79612748 19.36,8.42181818 L16.4509091,8.58909091 C16.4154587,8.7024806 16.3934891,8.81965165 16.3854545,8.93818182 L17.1636364,8.82181818 L17.2072727,8.82181818 C17.2433418,8.81527207 17.2802946,8.81527207 17.3163636,8.82181818 L17.3381818,8.82909091 Z M24.4145455,13.6654545 C24.1537878,13.6653966 23.8951521,13.6185958 23.6509091,13.5272727 C22.8167934,13.1798046 22.2831705,12.3541318 22.308977,11.4509058 C22.3347834,10.5476799 22.9146786,9.75382188 23.7672727,9.45454545 C23.8746429,9.41887464 23.9929523,9.44704353 24.0727273,9.52727273 L26.3927273,11.8472727 C26.4729565,11.9270477 26.5011254,12.0453571 26.4654545,12.1527273 L26.4654545,12.2545455 C26.1412314,13.08601 25.3433207,13.6361939 24.4509091,13.6436364 L24.4145455,13.6654545 Z M23.7818182,10.1090909 C23.0890789,10.3929897 22.6984986,11.1316804 22.8538998,11.8640306 C23.0093009,12.5963807 23.6662093,13.1127995 24.4145455,13.0909091 C25.027989,13.0894255 25.5833377,12.7277369 25.8327273,12.1672727 L23.7818182,10.1090909 Z" id="Shape"></path>
            </g>
        </g>
    </g>
</svg>