<?xml version="1.0" encoding="UTF-8"?>
<svg width="50px" height="50px" viewBox="0 0 50 50" version="1.1" xmlns="http://www.w3.org/2000/svg" xmlns:xlink="http://www.w3.org/1999/xlink">
    <!-- Generator: Sketch 50.2 (55047) - http://www.bohemiancoding.com/sketch -->
    <title>Mobile</title>
    <desc>Created with Sketch.</desc>
    <defs></defs>
    <g id="Mobile" stroke="none" stroke-width="1" fill="none" fill-rule="evenodd">
        <g id="portfolio-menu-item-active-copy-2" transform="translate(-3.000000, -2.000000)">
            <g id="photos-icon" transform="translate(6.500000, 6.000000)">
                <rect id="Rectangle" fill-opacity="0" fill="#D8D8D8" x="0" y="0" width="42" height="42"></rect>
                <g id="006-home" transform="translate(5.000000, 7.000000)" fill-rule="nonzero">
                    <path d="M31.6603509,11.2944405 L16.5214191,0.21002729 C16.2294893,-0.00368031189 15.8328889,-0.00368031189 15.5410838,0.21002729 L0.40202729,11.2944405 C0.0322495127,11.5652242 -0.0480935673,12.08446 0.222690058,12.4542378 C0.493473684,12.8240156 1.01277193,12.9042339 1.38248733,12.633575 L16.0311891,1.90802339 L30.6798908,12.6335127 C30.8276023,12.7417388 30.9992671,12.7938246 31.1694347,12.7938246 C31.4249357,12.7938246 31.6770682,12.6762417 31.8396257,12.4541754 C32.1104717,12.08446 32.0301287,11.5652242 31.6603509,11.2944405 Z" id="Shape"></path>
                    <path d="M27.6488733,12.8213957 C27.1906433,12.8213957 26.8190565,13.1929201 26.8190565,13.6512125 L26.8190565,26.8597271 L20.1806472,26.8597271 L20.1806472,19.6496842 C20.1806472,17.361653 18.3191579,15.5002885 16.0312515,15.5002885 C13.743345,15.5002885 11.8818558,17.3617778 11.8818558,19.6496842 L11.8818558,26.8597895 L5.24338402,26.8597895 L5.24338402,13.6512749 C5.24338402,13.1929825 4.87179727,12.8214581 4.41356725,12.8214581 C3.95533723,12.8214581 3.58375049,13.1929825 3.58375049,13.6512749 L3.58375049,27.6896686 C3.58375049,28.147961 3.95533723,28.5194854 4.41356725,28.5194854 L12.7116725,28.5194854 C13.1480702,28.5194854 13.5051852,28.1823314 13.5382456,27.7542924 C13.5402417,27.7348928 13.5414893,27.7136842 13.5414893,27.6896686 L13.5414893,19.6497466 C13.5414893,18.2768655 14.6583704,17.1599844 16.0312515,17.1599844 C17.4041326,17.1599844 18.5210136,18.2769279 18.5210136,19.6497466 L18.5210136,27.6896686 C18.5210136,27.7135595 18.5222612,27.7343938 18.5242573,27.7535439 C18.5569435,28.1818947 18.9141832,28.5194854 19.3508304,28.5194854 L27.6489357,28.5194854 C28.1072281,28.5194854 28.4787524,28.147961 28.4787524,27.6896686 L28.4787524,13.6512749 C28.4786901,13.1929201 28.1071657,12.8213957 27.6488733,12.8213957 Z" id="Shape"></path>
                </g>
            </g>
        </g>
    </g>
</svg>