<?xml version="1.0" encoding="UTF-8"?>
<svg width="50px" height="50px" viewBox="0 0 50 50" version="1.1" xmlns="http://www.w3.org/2000/svg" xmlns:xlink="http://www.w3.org/1999/xlink">
    <!-- Generator: Sketch 50.2 (55047) - http://www.bohemiancoding.com/sketch -->
    <title>Mobile</title>
    <desc>Created with Sketch.</desc>
    <defs></defs>
    <g id="Mobile" stroke="none" stroke-width="1" fill="none" fill-rule="evenodd">
        <g id="portfolio-menu-item-active-copy-3" transform="translate(-3.000000, -2.000000)" fill="#666666" fill-rule="nonzero">
            <g id="photos-icon" transform="translate(6.500000, 6.000000)">
                <path d="M19.6569367,7.32696015 L16.3932478,7.32696015 C15.7506755,7.32696015 15.2297677,6.80605237 15.2297677,6.16348007 C15.2297677,5.52090777 15.7506755,5 16.3932478,5 L25.6067522,5 C26.2493245,5 26.7702323,5.52090777 26.7702323,6.16348007 C26.7702323,6.80605237 26.2493245,7.32696015 25.6067522,7.32696015 L22.3430633,7.32696015 C22.3516463,7.38862088 22.3560832,7.45160859 22.3560832,7.51563259 L22.3560832,14.5938857 L30.0990678,35.165856 C30.3628906,35.8667944 30.0085384,36.648888 29.3076,36.9127109 C28.6066615,37.1765337 27.8245679,36.8221815 27.5607451,36.121243 L22.3560832,22.2932225 L22.3560832,30.2428008 C22.3560832,30.9917449 21.7489441,31.598884 21,31.598884 C20.2510559,31.598884 19.6439168,30.9917449 19.6439168,30.2428008 L19.6439168,22.2932225 L14.4392549,36.121243 C14.1754321,36.8221815 13.3933385,37.1765337 12.6924,36.9127109 C11.9914616,36.648888 11.6371094,35.8667944 11.9009322,35.165856 L19.6439168,14.5938857 L19.6439168,12.3582253 L18.3664471,12.3582253 L18.3664471,12.9871335 C18.3664471,13.5298466 17.9264912,13.9698025 17.3837781,13.9698025 C16.8410651,13.9698025 16.4011092,13.5298466 16.4011092,12.9871335 L16.4011092,9.77184057 C16.4011092,9.22912748 16.8410651,8.78917159 17.3837781,8.78917159 C17.9264912,8.78917159 18.3664471,9.22912748 18.3664471,9.77184057 L18.3664471,10.3928874 L19.6439168,10.3928874 L19.6439168,7.51563259 C19.6439168,7.45160859 19.6483537,7.38862088 19.6569367,7.32696015 Z" id="Combined-Shape"></path>
            </g>
        </g>
    </g>
</svg>