<?xml version="1.0" encoding="UTF-8"?>
<svg width="50px" height="50px" viewBox="0 0 50 50" version="1.1" xmlns="http://www.w3.org/2000/svg" xmlns:xlink="http://www.w3.org/1999/xlink">
    <!-- Generator: Sketch 50.2 (55047) - http://www.bohemiancoding.com/sketch -->
    <title>Mobile</title>
    <desc>Created with Sketch.</desc>
    <defs></defs>
    <g id="Mobile" stroke="none" stroke-width="1" fill="none" fill-rule="evenodd">
        <g id="portfolio-menu-item-active-copy-4" transform="translate(-3.000000, -2.000000)">
            <g id="photos-icon" transform="translate(6.500000, 6.000000)">
                <rect id="Rectangle" fill-opacity="0" fill="#D8D8D8" x="0" y="0" width="42" height="42"></rect>
                <g id="002-people" transform="translate(9.000000, 5.000000)" fill="#666666" fill-rule="nonzero">
                    <path d="M20.6223125,22.212625 C20.6221875,22.2125625 20.6220625,22.2124375 20.621875,22.212375 C20.1234375,21.8890625 19.722375,21.735625 19.627375,21.7015 L16.734875,20.496125 L14.6955625,19.150375 C14.6759375,19.137375 14.6555,19.1265625 14.6348125,19.116625 L14.6348125,18.2446875 C16.1746875,17.475875 17.29025,15.9810625 17.531,14.2111875 C18.7725625,14.1106875 19.7523125,13.068875 19.7523125,11.801875 C19.7523125,11.1749375 19.5124375,10.6030625 19.1198125,10.173 L19.1198125,7.07875 C19.1199375,3.1754375 15.9445,0 12.0413125,0 L11.493375,0 C7.5905,0 4.41525,3.1754375 4.41525,7.0785625 L4.41525,10.13825 C4.003375,10.5720625 3.7498125,11.1576875 3.7498125,11.8016875 C3.7498125,13.0686875 4.7295625,14.1105 5.971125,14.211 C6.2119375,15.9809375 7.3275625,17.47575 8.8675,18.2445 L8.8675,19.0599375 L6.7418125,20.4625625 C6.713,20.4689375 6.6843125,20.4774375 6.656125,20.4891875 L3.74775,21.7011875 C3.6023125,21.75325 2.747625,22.0816875 1.8990625,22.8830625 C1.0590625,23.6763125 0.05775,25.1035625 0.05775,27.3986875 L0.05775,31.4915 C0.05775,31.772125 0.285125,31.9996875 0.5658125,31.9996875 L6.5673125,31.9996875 C6.8479375,31.9996875 7.075375,31.7723125 7.075375,31.491625 C7.075375,31.211 6.848,30.9835625 6.5673125,30.9835625 L5.00225,30.9835625 L5.00225,27.212625 C5.00225,26.932 4.774875,26.7045625 4.4941875,26.7045625 C4.2135,26.7045625 3.986125,26.9319375 3.986125,27.212625 L3.986125,30.9835625 L1.0739375,30.9835625 L1.0739375,27.3988125 C1.0739375,23.7386875 3.9703125,22.6991875 4.0918125,22.6573125 C4.1031875,22.6534375 4.114375,22.6493125 4.1254375,22.6446875 L6.548125,21.6350625 L9.166875,30.983625 L8.157375,30.983625 C7.87675,30.983625 7.6493125,31.211 7.6493125,31.4916875 C7.6493125,31.772375 7.8766875,31.99975 8.157375,31.99975 L9.834875,31.99975 C9.8354375,31.99975 9.8359375,31.999875 9.8365625,31.999875 C9.83725,31.999875 9.8379375,31.99975 9.8385,31.99975 L13.6655625,31.99975 L13.6669375,31.99975 L13.6725625,31.99975 C13.67325,31.99975 13.6739375,31.999875 13.6745,31.999875 C13.6750625,31.999875 13.6755625,31.99975 13.6761875,31.99975 L22.809125,31.99975 C23.08975,31.99975 23.3171875,31.77125 23.3171875,31.4906875 L23.3171875,27.39875 C23.317125,24.4084375 21.6289375,22.866 20.6223125,22.212625 Z M15.9144375,21.172 L14.384125,24.3173125 L12.485875,22.9201875 L14.49275,20.837 C14.6041875,20.721375 14.6495,20.566625 14.6303125,20.4189375 C14.633,20.39775 14.634875,20.37625 14.634875,20.354375 L14.634875,20.32775 L15.9144375,21.172 Z M12.827625,24.4331875 L12.4284375,25.4963125 L11.060125,25.4963125 L11.060125,25.496375 L10.6109375,24.4241875 L11.713125,23.613 L12.827625,24.4331875 Z M9.8759375,20.4395625 C9.880625,20.4118125 9.8836875,20.3834375 9.8836875,20.35425 L9.8836875,19.33875 C9.8836875,19.3385 9.8836875,19.33825 9.8836875,19.338 L9.8836875,18.6276875 C10.314,18.7406875 10.76525,18.8013125 11.2305625,18.8013125 L12.272125,18.8013125 C12.737375,18.8013125 13.1885625,18.7406875 13.618875,18.62775 L13.618875,20.2795 L11.7274375,22.242875 L9.8759375,20.4395625 Z M18.736375,11.80175 C18.7363125,12.4904375 18.2366875,13.0635 17.581125,13.1805625 L17.581125,10.42275 C18.2366875,10.53975 18.736375,11.1129375 18.736375,11.80175 Z M5.9211875,13.1805625 C5.265625,13.0635 4.7659375,12.4905 4.7659375,11.80175 C4.7659375,11.112875 5.2655625,10.53975 5.9211875,10.4226875 L5.9211875,13.1805625 Z M6.43125,8.895125 C6.4305,8.895125 6.42975,8.895125 6.4290625,8.895125 C6.4115625,8.895125 6.3943125,8.896 6.37725,8.89775 C6.371875,8.8983125 6.36675,8.8994375 6.361375,8.9001875 C6.3498125,8.90175 6.3381875,8.9031875 6.326875,8.9055 C6.3195625,8.907 6.3125625,8.90925 6.305375,8.911 C6.2963125,8.9133125 6.287125,8.9151875 6.27825,8.918 C6.27,8.9205625 6.2620625,8.923875 6.254,8.9268125 C6.2465625,8.9295 6.2389375,8.931875 6.2316875,8.9349375 C6.2224375,8.938875 6.213625,8.9435 6.2045625,8.9479375 C6.198875,8.9508125 6.1929375,8.95325 6.1873125,8.95625 C6.1785625,8.961 6.17025,8.9665 6.16175,8.9716875 C6.1563125,8.9750625 6.1506875,8.9780625 6.1454375,8.981625 C6.137375,8.9870625 6.129875,8.993125 6.122125,8.9989375 C6.1169375,9.0029375 6.1114375,9.0065625 6.1063125,9.01075 C6.0993125,9.0164375 6.0929375,9.02275 6.0863125,9.0288125 C6.0809375,9.0336875 6.0753125,9.038375 6.0701875,9.0434375 C6.0640625,9.0495625 6.0584375,9.0561875 6.0526875,9.062625 C6.047625,9.06825 6.04225,9.073625 6.0374375,9.0794375 C6.0320625,9.085875 6.027375,9.0928125 6.0223125,9.0995 C6.0175625,9.105875 6.0125625,9.1119375 6.0080625,9.1185625 C6.0036875,9.1250625 5.999875,9.132 5.99575,9.1386875 C5.991375,9.1459375 5.986625,9.1529375 5.9825625,9.160375 C5.979,9.167 5.976,9.174 5.9726875,9.18075 C5.9688125,9.18875 5.964625,9.1965625 5.9611875,9.20475 C5.9583125,9.211375 5.9561875,9.218375 5.9536875,9.225125 C5.9504375,9.233875 5.9469375,9.242375 5.9440625,9.2513125 C5.941875,9.258125 5.940375,9.2653125 5.9385625,9.2723125 C5.936125,9.2814375 5.9334375,9.2905625 5.9314375,9.299875 C5.929875,9.30725 5.929125,9.3149375 5.9279375,9.322375 C5.9264375,9.3315625 5.9246875,9.34075 5.9236875,9.350125 C5.922875,9.358 5.9228125,9.3660625 5.922375,9.374 C5.9219375,9.38125 5.9213125,9.3884375 5.921125,9.3958125 C5.752,9.413 5.5881875,9.4480625 5.4310625,9.4984375 L5.4310625,7.0785 C5.4310625,3.7358125 8.1505,1.0161875 11.493125,1.0161875 L12.0410625,1.0161875 C15.384,1.0161875 18.1035625,3.7358125 18.1035625,7.0786875 L18.1035625,9.5098125 C17.9364375,9.4535 17.7615625,9.4144375 17.5805,9.396 C17.5805,9.393875 17.58025,9.3918125 17.5801875,9.3896875 C17.5799375,9.3785 17.5795,9.3673125 17.5785,9.3563125 C17.577875,9.349625 17.5768125,9.3430625 17.5759375,9.336375 C17.574625,9.3266875 17.573375,9.317 17.5715625,9.307375 C17.57,9.2993125 17.5680625,9.2914375 17.5660625,9.2835 C17.5641875,9.275625 17.5623125,9.2678125 17.5600625,9.2600625 C17.5574375,9.2510625 17.5543125,9.24225 17.5511875,9.2334375 C17.548875,9.227 17.5466875,9.2205625 17.544125,9.21425 C17.540375,9.205 17.5361875,9.195875 17.5319375,9.186875 C17.52925,9.1811875 17.526625,9.1755 17.52375,9.1699375 C17.519125,9.161125 17.5141875,9.152625 17.509125,9.1440625 C17.5058125,9.1384375 17.5025,9.13275 17.4989375,9.12725 C17.493875,9.1194375 17.4885,9.1119375 17.483,9.1044375 C17.47875,9.0985625 17.4744375,9.092625 17.4699375,9.0869375 C17.464625,9.080375 17.4591875,9.0740625 17.453625,9.0676875 C17.4481875,9.0615 17.442875,9.0554375 17.4371875,9.0495625 C17.431875,9.0440625 17.426375,9.0389375 17.420875,9.0336875 C17.4144375,9.0275625 17.4079375,9.0215625 17.4011875,9.0158125 C17.395625,9.011125 17.389875,9.0066875 17.384125,9.0021875 C17.3769375,8.996625 17.3698125,8.9910625 17.362375,8.9859375 C17.356125,8.981625 17.3496875,8.977625 17.34325,8.9735625 C17.3359375,8.9689375 17.328625,8.964375 17.3210625,8.9600625 C17.313625,8.955875 17.3058125,8.9520625 17.2981875,8.94825 C17.29125,8.944875 17.2845,8.9413125 17.277375,8.93825 C17.26825,8.9341875 17.2588125,8.93075 17.2493125,8.9271875 C17.2431875,8.9249375 17.23725,8.9225 17.231,8.9205 C17.2205,8.9170625 17.2098125,8.91425 17.199,8.9115 C17.1944375,8.910375 17.1900625,8.90875 17.1854375,8.9076875 C15.1971875,8.4554375 14.59725,5.951 14.591625,5.92675 C14.5475625,5.7320625 14.3935,5.5811875 14.1979375,5.54125 C14.002375,5.5010625 13.8015,5.579375 13.6844375,5.74125 C11.42475,8.8650625 6.5119375,8.895125 6.4316875,8.895125 C6.431625,8.895125 6.431375,8.895125 6.43125,8.895125 Z M6.9373125,13.49225 L6.9373125,9.8935625 C8.23625,9.81375 11.6875,9.3815 13.9074375,7.05775 C14.290375,7.958625 15.083375,9.274125 16.565,9.7853125 L16.565,13.49225 C16.565,15.8594375 14.6391875,17.7853125 12.272125,17.7853125 L11.2305625,17.7853125 C8.8631875,17.78525 6.9373125,15.859375 6.9373125,13.49225 Z M8.8675625,20.2774375 L8.8675625,20.3543125 C8.8675625,20.408125 8.876125,20.4599375 8.8915625,20.5085625 C8.83575,20.68575 8.8789375,20.887 9.0210625,21.0255 L10.9551875,22.909375 L9.042125,24.317375 L7.511875,21.1720625 L8.8675625,20.2774375 Z M9.7030625,29.1309375 L8.7066875,25.5739375 C8.714625,25.5763125 8.7223125,25.57925 8.730375,25.5811875 C8.770625,25.5910625 8.811375,25.5959375 8.8520625,25.5959375 C8.959375,25.5959375 9.065125,25.5619375 9.1531875,25.4970625 L9.7689375,25.0439375 L10.1974375,26.066875 L9.7030625,29.1309375 Z M10.433375,30.98375 L11.15475,26.5125 L12.3476875,26.5125 L13.069,30.98375 L10.433375,30.98375 Z M13.303375,26.05675 L13.678,25.059125 L14.273125,25.497125 C14.36125,25.562 14.4669375,25.596 14.57425,25.596 C14.614875,25.596 14.6556875,25.591125 14.6959375,25.58125 C14.738125,25.5708125 14.7780625,25.554625 14.8155,25.534375 L13.8025625,29.1504375 L13.303375,26.05675 Z M22.3010625,30.98375 L19.388625,30.98375 L19.388625,27.2128125 C19.388625,26.9321875 19.16125,26.70475 18.8805625,26.70475 C18.5999375,26.70475 18.3725,26.932125 18.3725,27.2128125 L18.3725,30.98375 L14.344125,30.98375 L16.9485625,21.685875 L19.2495,22.64475 C19.259375,22.648875 19.27125,22.653375 19.281375,22.6568125 C19.28475,22.6580625 19.6244375,22.7765 20.068875,23.0648125 C20.0689375,23.064875 20.069,23.064875 20.0690625,23.0649375 C21.0873125,23.7259375 22.3010625,25.014375 22.3010625,27.3989375 L22.3010625,30.98375 Z" id="Shape"></path>
                    <path d="M12.3454375,13.9564375 C12.6260625,13.9564375 12.8535,13.7290625 12.8535,13.448375 C12.8535,13.16775 12.626125,12.9403125 12.3454375,12.9403125 L11.9704375,12.9403125 L11.9704375,11.763875 C11.9704375,11.4833125 11.7430625,11.2558125 11.462375,11.2558125 C11.18175,11.2558125 10.9543125,11.4833125 10.9543125,11.763875 L10.9543125,13.448375 C10.9543125,13.729 11.1816875,13.9564375 11.462375,13.9564375 L12.3454375,13.9564375 Z" id="Shape"></path>
                </g>
            </g>
        </g>
    </g>
</svg>